COMMENT @(#)91	1.1  src/bos/usr/lpp/jls/fonts/RomanKn23G.bdf, fontKJI, bos411, 9428A410j 2/24/94 10:18:27
COMMENT
COMMENT   COMPONENT_NAME: fontKJI
COMMENT
COMMENT   FUNCTIONS: none
COMMENT
COMMENT   ORIGINS: 27
COMMENT
COMMENT   IBM CONFIDENTIAL -- (IBM Confidential Restricted when
COMMENT   combined with the aggregated modules for this product)
COMMENT                    SOURCE MATERIALS
COMMENT
COMMENT   (C) COPYRIGHT International Business Machines Corp. 1991,1993
COMMENT   All Rights Reserved
COMMENT   US Government Users Restricted Rights - Use, duplication or
COMMENT   disclosure restricted by GSA ADP Schedule Contract with IBM Corp.
COMMENT
COMMENT
STARTFONT 2.1
FONT -IBM_AIX-Gothic-Medium-R-Normal--35-230-100-100-M-170-JISX0201.1976-0
SIZE 17 100 100
FONTBOUNDINGBOX 17 35 0 -1
STARTPROPERTIES 23
FONTNAME_REGISTRY "-"
FOUNDRY "IBM_AIX"
FAMILY_NAME "Gothic"
WEIGHT_NAME "Medium"
SLANT "R"
SETWIDTH_NAME "Normal"
ADD_STYLE_NAME ""
PIXEL_SIZE 35
POINT_SIZE 230
RESOLUTION_X 100
RESOLUTION_Y 100
SPACING "M"
AVERAGE_WIDTH 170
CHARSET_REGISTRY "JISX0201.1976"
CHARSET_ENCODING "0"
FONT_ASCENT 34
FONT_DESCENT 1
DEFAULT_CHAR 0
CAP_HEIGHT 35
CHARSET_COLLECTIONS ""
COPYRIGHT "Copyright 1991 by IBM."
_IBM_AIX_CODESET "AIXstdNLS"
_IBM_AIX_SINGLEBYTE_CODEPAGE_SHIFTS ""
ENDPROPERTIES
CHARS 191
STARTCHAR 0
ENCODING 0
SWIDTH 17 0
DWIDTH 17 0
BBX 17 35 0 -1
BITMAP
000000
000000
000000
000000
000000
000000
000000
000000
000000
000000
000000
000000
000000
000000
000000
000000
000000
000000
000000
000000
000000
000000
000000
000000
000000
000000
000000
000000
000000
000000
000000
000000
000000
000000
000000
ENDCHAR
STARTCHAR 1
ENCODING 1
SWIDTH 17 0
DWIDTH 17 0
BBX 17 35 0 -1
BITMAP
000000
000000
000000
000000
000000
000000
000000
000000
000000
000000
000000
000000
000000
000000
000000
000000
000000
000000
000000
000000
000000
000000
000000
000000
000000
000000
000000
000000
000000
000000
000000
000000
000000
000000
000000
ENDCHAR
STARTCHAR 2
ENCODING 2
SWIDTH 17 0
DWIDTH 17 0
BBX 17 35 0 -1
BITMAP
000000
000000
000000
000000
000000
000000
000000
000000
000000
000000
000000
000000
000000
000000
000000
000000
000000
000000
000000
000000
000000
000000
000000
000000
000000
000000
000000
000000
000000
000000
000000
000000
000000
000000
000000
ENDCHAR
STARTCHAR 3
ENCODING 3
SWIDTH 17 0
DWIDTH 17 0
BBX 17 35 0 -1
BITMAP
000000
000000
000000
000000
000000
000000
000000
000000
000000
000000
000000
000000
000000
000000
000000
000000
000000
000000
000000
000000
000000
000000
000000
000000
000000
000000
000000
000000
000000
000000
000000
000000
000000
000000
000000
ENDCHAR
STARTCHAR 4
ENCODING 4
SWIDTH 17 0
DWIDTH 17 0
BBX 17 35 0 -1
BITMAP
000000
000000
000000
000000
000000
000000
000000
000000
000000
000000
000000
000000
000000
000000
000000
000000
000000
000000
000000
000000
000000
000000
000000
000000
000000
000000
000000
000000
000000
000000
000000
000000
000000
000000
000000
ENDCHAR
STARTCHAR 5
ENCODING 5
SWIDTH 17 0
DWIDTH 17 0
BBX 17 35 0 -1
BITMAP
000000
000000
000000
000000
000000
000000
000000
000000
000000
000000
000000
000000
000000
000000
000000
000000
000000
000000
000000
000000
000000
000000
000000
000000
000000
000000
000000
000000
000000
000000
000000
000000
000000
000000
000000
ENDCHAR
STARTCHAR 6
ENCODING 6
SWIDTH 17 0
DWIDTH 17 0
BBX 17 35 0 -1
BITMAP
000000
000000
000000
000000
000000
000000
000000
000000
000000
000000
000000
000000
000000
000000
000000
000000
000000
000000
000000
000000
000000
000000
000000
000000
000000
000000
000000
000000
000000
000000
000000
000000
000000
000000
000000
ENDCHAR
STARTCHAR 7
ENCODING 7
SWIDTH 17 0
DWIDTH 17 0
BBX 17 35 0 -1
BITMAP
000000
000000
000000
000000
000000
000000
000000
000000
000000
000000
000000
000000
000000
000000
000000
000000
000000
000000
000000
000000
000000
000000
000000
000000
000000
000000
000000
000000
000000
000000
000000
000000
000000
000000
000000
ENDCHAR
STARTCHAR 8
ENCODING 8
SWIDTH 17 0
DWIDTH 17 0
BBX 17 35 0 -1
BITMAP
000000
000000
000000
000000
000000
000000
000000
000000
000000
000000
000000
000000
000000
000000
000000
000000
000000
000000
000000
000000
000000
000000
000000
000000
000000
000000
000000
000000
000000
000000
000000
000000
000000
000000
000000
ENDCHAR
STARTCHAR 9
ENCODING 9
SWIDTH 17 0
DWIDTH 17 0
BBX 17 35 0 -1
BITMAP
000000
000000
000000
000000
000000
000000
000000
000000
000000
000000
000000
000000
000000
000000
000000
000000
000000
000000
000000
000000
000000
000000
000000
000000
000000
000000
000000
000000
000000
000000
000000
000000
000000
000000
000000
ENDCHAR
STARTCHAR a
ENCODING 10
SWIDTH 17 0
DWIDTH 17 0
BBX 17 35 0 -1
BITMAP
000000
000000
000000
000000
000000
000000
000000
000000
000000
000000
000000
000000
000000
000000
000000
000000
000000
000000
000000
000000
000000
000000
000000
000000
000000
000000
000000
000000
000000
000000
000000
000000
000000
000000
000000
ENDCHAR
STARTCHAR b
ENCODING 11
SWIDTH 17 0
DWIDTH 17 0
BBX 17 35 0 -1
BITMAP
000000
000000
000000
000000
000000
000000
000000
000000
000000
000000
000000
000000
000000
000000
000000
000000
000000
000000
000000
000000
000000
000000
000000
000000
000000
000000
000000
000000
000000
000000
000000
000000
000000
000000
000000
ENDCHAR
STARTCHAR c
ENCODING 12
SWIDTH 17 0
DWIDTH 17 0
BBX 17 35 0 -1
BITMAP
000000
000000
000000
000000
000000
000000
000000
000000
000000
000000
000000
000000
000000
000000
000000
000000
000000
000000
000000
000000
000000
000000
000000
000000
000000
000000
000000
000000
000000
000000
000000
000000
000000
000000
000000
ENDCHAR
STARTCHAR d
ENCODING 13
SWIDTH 17 0
DWIDTH 17 0
BBX 17 35 0 -1
BITMAP
000000
000000
000000
000000
000000
000000
000000
000000
000000
000000
000000
000000
000000
000000
000000
000000
000000
000000
000000
000000
000000
000000
000000
000000
000000
000000
000000
000000
000000
000000
000000
000000
000000
000000
000000
ENDCHAR
STARTCHAR e
ENCODING 14
SWIDTH 17 0
DWIDTH 17 0
BBX 17 35 0 -1
BITMAP
000000
000000
000000
000000
000000
000000
000000
000000
000000
000000
000000
000000
000000
000000
000000
000000
000000
000000
000000
000000
000000
000000
000000
000000
000000
000000
000000
000000
000000
000000
000000
000000
000000
000000
000000
ENDCHAR
STARTCHAR f
ENCODING 15
SWIDTH 17 0
DWIDTH 17 0
BBX 17 35 0 -1
BITMAP
000000
000000
000000
000000
000000
000000
000000
000000
000000
000000
000000
000000
000000
000000
000000
000000
000000
000000
000000
000000
000000
000000
000000
000000
000000
000000
000000
000000
000000
000000
000000
000000
000000
000000
000000
ENDCHAR
STARTCHAR 10
ENCODING 16
SWIDTH 17 0
DWIDTH 17 0
BBX 17 35 0 -1
BITMAP
000000
000000
000000
000000
000000
000000
000000
000000
000000
000000
000000
000000
000000
000000
000000
000000
000000
000000
000000
000000
000000
000000
000000
000000
000000
000000
000000
000000
000000
000000
000000
000000
000000
000000
000000
ENDCHAR
STARTCHAR 11
ENCODING 17
SWIDTH 17 0
DWIDTH 17 0
BBX 17 35 0 -1
BITMAP
000000
000000
000000
000000
000000
000000
000000
000000
000000
000000
000000
000000
000000
000000
000000
000000
000000
000000
000000
000000
000000
000000
000000
000000
000000
000000
000000
000000
000000
000000
000000
000000
000000
000000
000000
ENDCHAR
STARTCHAR 12
ENCODING 18
SWIDTH 17 0
DWIDTH 17 0
BBX 17 35 0 -1
BITMAP
000000
000000
000000
000000
000000
000000
000000
000000
000000
000000
000000
000000
000000
000000
000000
000000
000000
000000
000000
000000
000000
000000
000000
000000
000000
000000
000000
000000
000000
000000
000000
000000
000000
000000
000000
ENDCHAR
STARTCHAR 13
ENCODING 19
SWIDTH 17 0
DWIDTH 17 0
BBX 17 35 0 -1
BITMAP
000000
000000
000000
000000
000000
000000
000000
000000
000000
000000
000000
000000
000000
000000
000000
000000
000000
000000
000000
000000
000000
000000
000000
000000
000000
000000
000000
000000
000000
000000
000000
000000
000000
000000
000000
ENDCHAR
STARTCHAR 14
ENCODING 20
SWIDTH 17 0
DWIDTH 17 0
BBX 17 35 0 -1
BITMAP
000000
000000
000000
000000
000000
000000
000000
000000
000000
000000
000000
000000
000000
000000
000000
000000
000000
000000
000000
000000
000000
000000
000000
000000
000000
000000
000000
000000
000000
000000
000000
000000
000000
000000
000000
ENDCHAR
STARTCHAR 15
ENCODING 21
SWIDTH 17 0
DWIDTH 17 0
BBX 17 35 0 -1
BITMAP
000000
000000
000000
000000
000000
000000
000000
000000
000000
000000
000000
000000
000000
000000
000000
000000
000000
000000
000000
000000
000000
000000
000000
000000
000000
000000
000000
000000
000000
000000
000000
000000
000000
000000
000000
ENDCHAR
STARTCHAR 16
ENCODING 22
SWIDTH 17 0
DWIDTH 17 0
BBX 17 35 0 -1
BITMAP
000000
000000
000000
000000
000000
000000
000000
000000
000000
000000
000000
000000
000000
000000
000000
000000
000000
000000
000000
000000
000000
000000
000000
000000
000000
000000
000000
000000
000000
000000
000000
000000
000000
000000
000000
ENDCHAR
STARTCHAR 17
ENCODING 23
SWIDTH 17 0
DWIDTH 17 0
BBX 17 35 0 -1
BITMAP
000000
000000
000000
000000
000000
000000
000000
000000
000000
000000
000000
000000
000000
000000
000000
000000
000000
000000
000000
000000
000000
000000
000000
000000
000000
000000
000000
000000
000000
000000
000000
000000
000000
000000
000000
ENDCHAR
STARTCHAR 18
ENCODING 24
SWIDTH 17 0
DWIDTH 17 0
BBX 17 35 0 -1
BITMAP
000000
000000
000000
000000
000000
000000
000000
000000
000000
000000
000000
000000
000000
000000
000000
000000
000000
000000
000000
000000
000000
000000
000000
000000
000000
000000
000000
000000
000000
000000
000000
000000
000000
000000
000000
ENDCHAR
STARTCHAR 19
ENCODING 25
SWIDTH 17 0
DWIDTH 17 0
BBX 17 35 0 -1
BITMAP
000000
000000
000000
000000
000000
000000
000000
000000
000000
000000
000000
000000
000000
000000
000000
000000
000000
000000
000000
000000
000000
000000
000000
000000
000000
000000
000000
000000
000000
000000
000000
000000
000000
000000
000000
ENDCHAR
STARTCHAR 1a
ENCODING 26
SWIDTH 17 0
DWIDTH 17 0
BBX 17 35 0 -1
BITMAP
000000
000000
000000
000000
000000
000000
000000
000000
000000
000000
000000
000000
000000
000000
000000
000000
000000
000000
000000
000000
000000
000000
000000
000000
000000
000000
000000
000000
000000
000000
000000
000000
000000
000000
000000
ENDCHAR
STARTCHAR 1b
ENCODING 27
SWIDTH 17 0
DWIDTH 17 0
BBX 17 35 0 -1
BITMAP
000000
000000
000000
000000
000000
000000
000000
000000
000000
000000
000000
000000
000000
000000
000000
000000
000000
000000
000000
000000
000000
000000
000000
000000
000000
000000
000000
000000
000000
000000
000000
000000
000000
000000
000000
ENDCHAR
STARTCHAR 1c
ENCODING 28
SWIDTH 17 0
DWIDTH 17 0
BBX 17 35 0 -1
BITMAP
000000
000000
000000
000000
000000
000000
000000
000000
000000
000000
000000
000000
000000
000000
000000
000000
000000
000000
000000
000000
000000
000000
000000
000000
000000
000000
000000
000000
000000
000000
000000
000000
000000
000000
000000
ENDCHAR
STARTCHAR 1d
ENCODING 29
SWIDTH 17 0
DWIDTH 17 0
BBX 17 35 0 -1
BITMAP
000000
000000
000000
000000
000000
000000
000000
000000
000000
000000
000000
000000
000000
000000
000000
000000
000000
000000
000000
000000
000000
000000
000000
000000
000000
000000
000000
000000
000000
000000
000000
000000
000000
000000
000000
ENDCHAR
STARTCHAR 1e
ENCODING 30
SWIDTH 17 0
DWIDTH 17 0
BBX 17 35 0 -1
BITMAP
000000
000000
000000
000000
000000
000000
000000
000000
000000
000000
000000
000000
000000
000000
000000
000000
000000
000000
000000
000000
000000
000000
000000
000000
000000
000000
000000
000000
000000
000000
000000
000000
000000
000000
000000
ENDCHAR
STARTCHAR 1f
ENCODING 31
SWIDTH 17 0
DWIDTH 17 0
BBX 17 35 0 -1
BITMAP
000000
000000
000000
000000
000000
000000
000000
000000
000000
000000
000000
000000
000000
000000
000000
000000
000000
000000
000000
000000
000000
000000
000000
000000
000000
000000
000000
000000
000000
000000
000000
000000
000000
000000
000000
ENDCHAR
STARTCHAR 0020
ENCODING 32
SWIDTH 17 0
DWIDTH 17 0
BBX 17 35 0 -1
BITMAP
000000
000000
000000
000000
000000
000000
000000
000000
000000
000000
000000
000000
000000
000000
000000
000000
000000
000000
000000
000000
000000
000000
000000
000000
000000
000000
000000
000000
000000
000000
000000
000000
000000
000000
000000
ENDCHAR
STARTCHAR 0021
ENCODING 33
SWIDTH 17 0
DWIDTH 17 0
BBX 17 35 0 -1
BITMAP
000000
000000
000000
000000
01e000
01e000
01e000
01e000
01e000
01e000
01e000
01e000
01e000
01e000
01e000
01e000
00c000
00c000
00c000
00c000
00c000
00c000
00c000
00c000
00c000
000000
000000
000000
01e000
01e000
01e000
01e000
000000
000000
000000
ENDCHAR
STARTCHAR 0022
ENCODING 34
SWIDTH 17 0
DWIDTH 17 0
BBX 17 35 0 -1
BITMAP
000000
000000
0f3c00
0f3c00
0f3c00
061800
061800
061800
000000
000000
000000
000000
000000
000000
000000
000000
000000
000000
000000
000000
000000
000000
000000
000000
000000
000000
000000
000000
000000
000000
000000
000000
000000
000000
000000
ENDCHAR
STARTCHAR 0023
ENCODING 35
SWIDTH 17 0
DWIDTH 17 0
BBX 17 35 0 -1
BITMAP
000000
000000
000000
000000
070e00
070e00
070e00
070e00
070e00
070e00
070e00
7fff80
7fff80
7fff80
0e1c00
0e1c00
0e1c00
0e1c00
0e1c00
0e1c00
0e1c00
7fff80
7fff80
7fff80
1c3800
1c3800
1c3800
1c3800
1c3800
1c3800
1c3800
1c3800
000000
000000
000000
ENDCHAR
STARTCHAR 0024
ENCODING 36
SWIDTH 17 0
DWIDTH 17 0
BBX 17 35 0 -1
BITMAP
000000
000000
00e000
00e000
00e000
03f000
0ffc00
1ffe00
1cee00
38e700
38e700
38e700
38e000
1ce000
1ee000
0fe000
07e000
01f000
00fc00
00fe00
00ef00
00e700
70e380
70e380
70e380
70e380
38e700
3cef00
1ffe00
0ffc00
03f000
00e000
00e000
00e000
000000
ENDCHAR
STARTCHAR 0025
ENCODING 37
SWIDTH 17 0
DWIDTH 17 0
BBX 17 35 0 -1
BITMAP
000000
000000
000000
000000
000180
1e0380
3f0300
3f0700
738600
738e00
738c00
739c00
739800
73b800
3f3000
3f7000
1e6000
00e000
00c000
01c000
019e00
03bf00
033f00
077380
067380
0e7380
0c7380
1c7380
387380
303f00
703f00
601e00
000000
000000
000000
ENDCHAR
STARTCHAR 0026
ENCODING 38
SWIDTH 17 0
DWIDTH 17 0
BBX 17 35 0 -1
BITMAP
000000
000000
000000
000000
078000
1fe000
1fe000
387000
387000
387000
387000
387000
387000
1ce000
1fe000
0fc000
0f8000
1f8700
1fc700
39c700
39e700
70e700
70f700
707f00
707e00
703e00
703e00
703e00
387f00
3ff700
1fe780
078380
000000
000000
000000
ENDCHAR
STARTCHAR 0027
ENCODING 39
SWIDTH 17 0
DWIDTH 17 0
BBX 17 35 0 -1
BITMAP
000000
000000
01e000
01e000
01e000
00c000
00c000
00c000
000000
000000
000000
000000
000000
000000
000000
000000
000000
000000
000000
000000
000000
000000
000000
000000
000000
000000
000000
000000
000000
000000
000000
000000
000000
000000
000000
ENDCHAR
STARTCHAR 0028
ENCODING 40
SWIDTH 17 0
DWIDTH 17 0
BBX 17 35 0 -1
BITMAP
000000
000000
000800
001c00
003800
003000
007000
00e000
00e000
00c000
01c000
01c000
01c000
038000
038000
038000
038000
038000
038000
038000
038000
038000
038000
01c000
01c000
01c000
00c000
00e000
00e000
007000
003000
003800
001c00
000800
000000
ENDCHAR
STARTCHAR 0029
ENCODING 41
SWIDTH 17 0
DWIDTH 17 0
BBX 17 35 0 -1
BITMAP
000000
000000
040000
0e0000
070000
030000
038000
01c000
01c000
00c000
00e000
00e000
00e000
007000
007000
007000
007000
007000
007000
007000
007000
007000
007000
00e000
00e000
00e000
00c000
01c000
01c000
038000
030000
070000
0e0000
040000
000000
ENDCHAR
STARTCHAR 002a
ENCODING 42
SWIDTH 17 0
DWIDTH 17 0
BBX 17 35 0 -1
BITMAP
000000
000000
000000
000000
000000
000000
000000
000000
000000
01c000
01c000
01c000
21c200
71c700
79cf00
3dde00
1ffc00
0ff800
07f000
0ff800
1ffc00
3dde00
79cf00
71c700
21c200
01c000
01c000
01c000
000000
000000
000000
000000
000000
000000
000000
ENDCHAR
STARTCHAR 002b
ENCODING 43
SWIDTH 17 0
DWIDTH 17 0
BBX 17 35 0 -1
BITMAP
000000
000000
000000
000000
000000
000000
000000
000000
000000
000000
000000
00c000
00c000
00c000
00c000
00c000
00c000
3fff00
3fff00
00c000
00c000
00c000
00c000
00c000
00c000
000000
000000
000000
000000
000000
000000
000000
000000
000000
000000
ENDCHAR
STARTCHAR 002c
ENCODING 44
SWIDTH 17 0
DWIDTH 17 0
BBX 17 35 0 -1
BITMAP
000000
000000
000000
000000
000000
000000
000000
000000
000000
000000
000000
000000
000000
000000
000000
000000
000000
000000
000000
000000
000000
000000
000000
000000
000000
000000
000000
3c0000
3c0000
3c0000
3c0000
1c0000
180000
300000
000000
ENDCHAR
STARTCHAR 002d
ENCODING 45
SWIDTH 17 0
DWIDTH 17 0
BBX 17 35 0 -1
BITMAP
000000
000000
000000
000000
000000
000000
000000
000000
000000
000000
000000
000000
000000
000000
000000
000000
000000
3fff00
3fff00
000000
000000
000000
000000
000000
000000
000000
000000
000000
000000
000000
000000
000000
000000
000000
000000
ENDCHAR
STARTCHAR 002e
ENCODING 46
SWIDTH 17 0
DWIDTH 17 0
BBX 17 35 0 -1
BITMAP
000000
000000
000000
000000
000000
000000
000000
000000
000000
000000
000000
000000
000000
000000
000000
000000
000000
000000
000000
000000
000000
000000
000000
000000
000000
000000
000000
000000
1e0000
1e0000
1e0000
1e0000
000000
000000
000000
ENDCHAR
STARTCHAR 002f
ENCODING 47
SWIDTH 17 0
DWIDTH 17 0
BBX 17 35 0 -1
BITMAP
000000
000000
000080
000180
000180
000300
000300
000600
000600
000c00
000c00
001800
001800
003000
003000
006000
006000
00c000
00c000
018000
018000
030000
030000
060000
060000
0c0000
0c0000
180000
180000
300000
300000
600000
600000
400000
000000
ENDCHAR
STARTCHAR 0030
ENCODING 48
SWIDTH 17 0
DWIDTH 17 0
BBX 17 35 0 -1
BITMAP
000000
000000
000000
000000
01c000
07f000
0ff800
1e3c00
1c1c00
380e00
380e00
380e00
700700
700700
700700
700700
700700
700700
700700
700700
700700
700700
700700
700700
380e00
380e00
380e00
1c1c00
1e3c00
0ff800
07f000
01c000
000000
000000
000000
ENDCHAR
STARTCHAR 0031
ENCODING 49
SWIDTH 17 0
DWIDTH 17 0
BBX 17 35 0 -1
BITMAP
000000
000000
000000
000000
00e000
01e000
07e000
07e000
00e000
00e000
00e000
00e000
00e000
00e000
00e000
00e000
00e000
00e000
00e000
00e000
00e000
00e000
00e000
00e000
00e000
00e000
00e000
00e000
00e000
00e000
00e000
00e000
000000
000000
000000
ENDCHAR
STARTCHAR 0032
ENCODING 50
SWIDTH 17 0
DWIDTH 17 0
BBX 17 35 0 -1
BITMAP
000000
000000
000000
000000
03e000
0ff800
1ffc00
3c1e00
380e00
700700
700700
700700
700700
000e00
000e00
001c00
003c00
007800
00f000
01e000
03c000
078000
0f0000
0e0000
1c0000
3c0000
380000
700000
700000
7fff00
7fff00
7fff00
000000
000000
000000
ENDCHAR
STARTCHAR 0033
ENCODING 51
SWIDTH 17 0
DWIDTH 17 0
BBX 17 35 0 -1
BITMAP
000000
000000
000000
000000
01e000
07f800
0ffc00
1e1e00
1c0e00
380700
380700
380700
000700
000700
000e00
001e00
03fc00
03fc00
03fe00
000f00
000700
000380
000380
000380
700380
700380
700380
380700
3c0f00
1ffe00
0ffc00
03f000
000000
000000
000000
ENDCHAR
STARTCHAR 0034
ENCODING 52
SWIDTH 17 0
DWIDTH 17 0
BBX 17 35 0 -1
BITMAP
000000
000000
000000
000000
007800
007800
00f800
00f800
01f800
01f800
03b800
03b800
073800
073800
0e3800
0e3800
1c3800
1c3800
383800
383800
703800
703800
7fff80
7fff80
7fff80
003800
003800
003800
003800
003800
003800
003800
000000
000000
000000
ENDCHAR
STARTCHAR 0035
ENCODING 53
SWIDTH 17 0
DWIDTH 17 0
BBX 17 35 0 -1
BITMAP
000000
000000
000000
000000
3fff80
3fff80
3fff80
380000
380000
380000
380000
380000
380000
380000
3bf000
3ffc00
3ffe00
3c0f00
380700
000380
000380
000380
000380
000380
000380
700380
700380
380700
3c0f00
1ffe00
0ffc00
03f000
000000
000000
000000
ENDCHAR
STARTCHAR 0036
ENCODING 54
SWIDTH 17 0
DWIDTH 17 0
BBX 17 35 0 -1
BITMAP
000000
000000
000000
000000
03e000
0ff800
1ffc00
1c1c00
380e00
380e00
380000
700000
700000
700000
71e000
77f800
7ffc00
7c1e00
780e00
700700
700700
700700
700700
700700
700700
700700
380700
380e00
1c1e00
1ffc00
0ff800
03e000
000000
000000
000000
ENDCHAR
STARTCHAR 0037
ENCODING 55
SWIDTH 17 0
DWIDTH 17 0
BBX 17 35 0 -1
BITMAP
000000
000000
000000
000000
3fff80
3fff80
3fff80
000700
000700
000e00
000e00
001c00
001c00
001c00
003800
003800
003800
007000
007000
007000
00e000
00e000
00e000
00e000
01c000
01c000
01c000
01c000
038000
038000
038000
038000
000000
000000
000000
ENDCHAR
STARTCHAR 0038
ENCODING 56
SWIDTH 17 0
DWIDTH 17 0
BBX 17 35 0 -1
BITMAP
000000
000000
000000
000000
03f000
0ffc00
1ffe00
1c0e00
380700
380700
380700
380700
380700
1c0e00
1e1e00
0ffc00
07f800
1ffe00
3c0f00
380700
700380
700380
700380
700380
700380
700380
700380
380700
3c0f00
1ffe00
0ffc00
03f000
000000
000000
000000
ENDCHAR
STARTCHAR 0039
ENCODING 57
SWIDTH 17 0
DWIDTH 17 0
BBX 17 35 0 -1
BITMAP
000000
000000
000000
000000
03e000
0ff800
1ffc00
3c1c00
380e00
700e00
700700
700700
700700
700700
700700
700700
700f00
380f00
3c1f00
1fff00
0ff700
03c700
000700
000700
000700
000e00
380e00
380e00
1c1c00
1ffc00
0ff800
03e000
000000
000000
000000
ENDCHAR
STARTCHAR 003a
ENCODING 58
SWIDTH 17 0
DWIDTH 17 0
BBX 17 35 0 -1
BITMAP
000000
000000
000000
000000
000000
000000
000000
000000
000000
01e000
01e000
01e000
01e000
000000
000000
000000
000000
000000
000000
000000
000000
000000
000000
01e000
01e000
01e000
01e000
000000
000000
000000
000000
000000
000000
000000
000000
ENDCHAR
STARTCHAR 003b
ENCODING 59
SWIDTH 17 0
DWIDTH 17 0
BBX 17 35 0 -1
BITMAP
000000
000000
000000
000000
000000
000000
000000
000000
000000
01e000
01e000
01e000
01e000
000000
000000
000000
000000
000000
000000
000000
000000
000000
000000
01e000
01e000
01e000
01e000
00e000
00c000
018000
000000
000000
000000
000000
000000
ENDCHAR
STARTCHAR 003c
ENCODING 60
SWIDTH 17 0
DWIDTH 17 0
BBX 17 35 0 -1
BITMAP
000000
000000
000000
000000
000000
000000
000000
000000
000000
000000
000000
000300
000f00
003e00
00f800
03e000
0f8000
1e0000
1e0000
0f8000
03e000
00f800
003e00
000f00
000300
000000
000000
000000
000000
000000
000000
000000
000000
000000
000000
ENDCHAR
STARTCHAR 003d
ENCODING 61
SWIDTH 17 0
DWIDTH 17 0
BBX 17 35 0 -1
BITMAP
000000
000000
000000
000000
000000
000000
000000
000000
000000
000000
000000
000000
000000
000000
3fff00
3fff00
000000
000000
000000
3fff00
3fff00
000000
000000
000000
000000
000000
000000
000000
000000
000000
000000
000000
000000
000000
000000
ENDCHAR
STARTCHAR 003e
ENCODING 62
SWIDTH 17 0
DWIDTH 17 0
BBX 17 35 0 -1
BITMAP
000000
000000
000000
000000
000000
000000
000000
000000
000000
000000
000000
300000
3c0000
1f0000
07c000
01f000
007c00
001e00
001e00
007c00
01f000
07c000
1f0000
3c0000
300000
000000
000000
000000
000000
000000
000000
000000
000000
000000
000000
ENDCHAR
STARTCHAR 003f
ENCODING 63
SWIDTH 17 0
DWIDTH 17 0
BBX 17 35 0 -1
BITMAP
000000
000000
000000
000000
01e000
07f800
0ffc00
1e1e00
1c0e00
380700
380700
380700
000700
000e00
001e00
001c00
003800
007800
007000
00e000
00e000
01c000
01c000
01c000
01c000
000000
000000
000000
01c000
01c000
01c000
01c000
000000
000000
000000
ENDCHAR
STARTCHAR 0040
ENCODING 64
SWIDTH 17 0
DWIDTH 17 0
BBX 17 35 0 -1
BITMAP
000000
000000
000000
000000
000000
000000
000000
000000
03f000
0ffc00
1c0e00
380700
300300
61ed80
67fd80
673d80
6e1980
6e3980
6e3900
6e7b00
67fe00
63cc80
300180
380700
1c0e00
0ffc00
03f000
000000
000000
000000
000000
000000
000000
000000
000000
ENDCHAR
STARTCHAR 0041
ENCODING 65
SWIDTH 17 0
DWIDTH 17 0
BBX 17 35 0 -1
BITMAP
000000
000000
000000
000000
00c000
00c000
01e000
01e000
01e000
01e000
03f000
03f000
03f000
073800
073800
073800
073800
0e1c00
0e1c00
0e1c00
0ffc00
1ffe00
1ffe00
1c0e00
380700
380700
380700
380700
700380
700380
700380
700380
000000
000000
000000
ENDCHAR
STARTCHAR 0042
ENCODING 66
SWIDTH 17 0
DWIDTH 17 0
BBX 17 35 0 -1
BITMAP
000000
000000
000000
000000
3fe000
3ff800
3ffc00
381e00
380e00
380700
380700
380700
380700
380700
380e00
381e00
3ffc00
3ffc00
3ffe00
380f00
380700
380380
380380
380380
380380
380380
380380
380700
380f00
3ffe00
3ffc00
3ff000
000000
000000
000000
ENDCHAR
STARTCHAR 0043
ENCODING 67
SWIDTH 17 0
DWIDTH 17 0
BBX 17 35 0 -1
BITMAP
000000
000000
000000
000000
01f000
07fc00
0ffe00
1e0f00
1c0700
380380
380380
380380
700000
700000
700000
700000
700000
700000
700000
700000
700000
700000
700000
700000
380380
380380
380380
1c0700
1e0f00
0ffe00
07fc00
01f000
000000
000000
000000
ENDCHAR
STARTCHAR 0044
ENCODING 68
SWIDTH 17 0
DWIDTH 17 0
BBX 17 35 0 -1
BITMAP
000000
000000
000000
000000
3fe000
3ff800
3ffc00
381e00
380f00
380700
380700
380380
380380
380380
380380
380380
380380
380380
380380
380380
380380
380380
380380
380380
380380
380700
380700
380f00
381e00
3ffc00
3ff800
3fe000
000000
000000
000000
ENDCHAR
STARTCHAR 0045
ENCODING 69
SWIDTH 17 0
DWIDTH 17 0
BBX 17 35 0 -1
BITMAP
000000
000000
000000
000000
3fff00
3fff00
3fff00
380000
380000
380000
380000
380000
380000
380000
380000
380000
3ffe00
3ffe00
3ffe00
380000
380000
380000
380000
380000
380000
380000
380000
380000
380000
3fff00
3fff00
3fff00
000000
000000
000000
ENDCHAR
STARTCHAR 0046
ENCODING 70
SWIDTH 17 0
DWIDTH 17 0
BBX 17 35 0 -1
BITMAP
000000
000000
000000
000000
3fff00
3fff00
3fff00
380000
380000
380000
380000
380000
380000
380000
380000
380000
3ffe00
3ffe00
3ffe00
380000
380000
380000
380000
380000
380000
380000
380000
380000
380000
380000
380000
380000
000000
000000
000000
ENDCHAR
STARTCHAR 0047
ENCODING 71
SWIDTH 17 0
DWIDTH 17 0
BBX 17 35 0 -1
BITMAP
000000
000000
000000
000000
01f000
07fc00
0ffe00
1e0f00
1c0700
380380
380380
380380
700000
700000
700000
700000
700000
707f80
707f80
707f80
700380
700380
700380
700380
380380
380380
380380
1c0780
1e0f80
0fff80
07fb80
03e380
000000
000000
000000
ENDCHAR
STARTCHAR 0048
ENCODING 72
SWIDTH 17 0
DWIDTH 17 0
BBX 17 35 0 -1
BITMAP
000000
000000
000000
000000
380700
380700
380700
380700
380700
380700
380700
380700
380700
380700
380700
380700
3fff00
3fff00
3fff00
380700
380700
380700
380700
380700
380700
380700
380700
380700
380700
380700
380700
380700
000000
000000
000000
ENDCHAR
STARTCHAR 0049
ENCODING 73
SWIDTH 17 0
DWIDTH 17 0
BBX 17 35 0 -1
BITMAP
000000
000000
000000
000000
01c000
01c000
01c000
01c000
01c000
01c000
01c000
01c000
01c000
01c000
01c000
01c000
01c000
01c000
01c000
01c000
01c000
01c000
01c000
01c000
01c000
01c000
01c000
01c000
01c000
01c000
01c000
01c000
000000
000000
000000
ENDCHAR
STARTCHAR 004a
ENCODING 74
SWIDTH 17 0
DWIDTH 17 0
BBX 17 35 0 -1
BITMAP
000000
000000
000000
000000
001c00
001c00
001c00
001c00
001c00
001c00
001c00
001c00
001c00
001c00
001c00
001c00
001c00
001c00
001c00
001c00
001c00
001c00
001c00
001c00
001c00
001c00
381c00
381c00
1c3800
1ff800
0ff000
03c000
000000
000000
000000
ENDCHAR
STARTCHAR 004b
ENCODING 75
SWIDTH 17 0
DWIDTH 17 0
BBX 17 35 0 -1
BITMAP
000000
000000
000000
000000
380380
380780
380700
380e00
381e00
381c00
383800
387800
387000
38e000
39e000
39c000
3be000
3fe000
3f7000
3e7000
3c7000
383800
383800
381c00
381c00
380e00
380e00
380e00
380700
380700
380380
380380
000000
000000
000000
ENDCHAR
STARTCHAR 004c
ENCODING 76
SWIDTH 17 0
DWIDTH 17 0
BBX 17 35 0 -1
BITMAP
000000
000000
000000
000000
380000
380000
380000
380000
380000
380000
380000
380000
380000
380000
380000
380000
380000
380000
380000
380000
380000
380000
380000
380000
380000
380000
380000
380000
380000
3fff00
3fff00
3fff00
000000
000000
000000
ENDCHAR
STARTCHAR 004d
ENCODING 77
SWIDTH 17 0
DWIDTH 17 0
BBX 17 35 0 -1
BITMAP
000000
000000
000000
000000
700700
700700
700700
780f00
780f00
780f00
780f00
7c1f00
7c1f00
7c1f00
7c1f00
7e3f00
7e3f00
763700
763700
777700
777700
736700
73e700
73e700
73e700
71c700
71c700
71c700
71c700
700700
700700
700700
000000
000000
000000
ENDCHAR
STARTCHAR 004e
ENCODING 78
SWIDTH 17 0
DWIDTH 17 0
BBX 17 35 0 -1
BITMAP
000000
000000
000000
000000
380700
380700
3c0700
3c0700
3e0700
3e0700
3f0700
3f0700
3f0700
3b8700
3b8700
3bc700
39c700
39c700
38e700
38e700
38f700
387700
387700
383f00
383f00
383f00
381f00
381f00
380f00
380f00
380700
380700
000000
000000
000000
ENDCHAR
STARTCHAR 004f
ENCODING 79
SWIDTH 17 0
DWIDTH 17 0
BBX 17 35 0 -1
BITMAP
000000
000000
000000
000000
01e000
07f800
0ffc00
1e1e00
1c0e00
380700
380700
380700
700380
700380
700380
700380
700380
700380
700380
700380
700380
700380
700380
700380
380700
380700
380700
1c0e00
1e1e00
0ffc00
07f800
01e000
000000
000000
000000
ENDCHAR
STARTCHAR 0050
ENCODING 80
SWIDTH 17 0
DWIDTH 17 0
BBX 17 35 0 -1
BITMAP
000000
000000
000000
000000
3ff000
3ffc00
3ffe00
380f00
380700
380380
380380
380380
380380
380380
380380
380380
380700
380f00
3ffe00
3ffc00
3ff000
380000
380000
380000
380000
380000
380000
380000
380000
380000
380000
380000
000000
000000
000000
ENDCHAR
STARTCHAR 0051
ENCODING 81
SWIDTH 17 0
DWIDTH 17 0
BBX 17 35 0 -1
BITMAP
000000
000000
000000
000000
01e000
07f800
0ffc00
1e1e00
1c0e00
380700
380700
380700
700380
700380
700380
700380
700380
700380
700380
700380
700380
700380
700380
700380
383700
387f00
383f00
1c1e00
1e1f00
0fff80
07fb80
01e100
000000
000000
000000
ENDCHAR
STARTCHAR 0052
ENCODING 82
SWIDTH 17 0
DWIDTH 17 0
BBX 17 35 0 -1
BITMAP
000000
000000
000000
000000
3ff000
3ffc00
3ffe00
380e00
380700
380700
380700
380700
380700
380700
380700
380e00
3ffe00
3ffc00
3ff800
383c00
381c00
381c00
380e00
380e00
380e00
380e00
380700
380700
380700
380700
380700
380780
000000
000000
000000
ENDCHAR
STARTCHAR 0053
ENCODING 83
SWIDTH 17 0
DWIDTH 17 0
BBX 17 35 0 -1
BITMAP
000000
000000
000000
000000
01e000
07f800
0ffc00
1e1e00
1c0e00
380700
380700
380700
380000
1c0000
1e0000
0f8000
07e000
01f000
007c00
003e00
000f00
000700
000380
700380
700380
700380
700380
380700
3c0f00
1ffe00
0ffc00
03f000
000000
000000
000000
ENDCHAR
STARTCHAR 0054
ENCODING 84
SWIDTH 17 0
DWIDTH 17 0
BBX 17 35 0 -1
BITMAP
000000
000000
000000
000000
7fff00
7fff00
7fff00
01c000
01c000
01c000
01c000
01c000
01c000
01c000
01c000
01c000
01c000
01c000
01c000
01c000
01c000
01c000
01c000
01c000
01c000
01c000
01c000
01c000
01c000
01c000
01c000
01c000
000000
000000
000000
ENDCHAR
STARTCHAR 0055
ENCODING 85
SWIDTH 17 0
DWIDTH 17 0
BBX 17 35 0 -1
BITMAP
000000
000000
000000
000000
380380
380380
380380
380380
380380
380380
380380
380380
380380
380380
380380
380380
380380
380380
380380
380380
380380
380380
380380
380380
380380
380380
3c0780
1c0700
1e0f00
0ffe00
07fc00
01f000
000000
000000
000000
ENDCHAR
STARTCHAR 0056
ENCODING 86
SWIDTH 17 0
DWIDTH 17 0
BBX 17 35 0 -1
BITMAP
000000
000000
000000
000000
700380
700380
700380
380700
380700
380700
380700
1c0e00
1c0e00
1c0e00
1c0e00
0e1c00
0e1c00
0e1c00
0e1c00
073800
073800
073800
073800
03f000
03f000
03f000
03f000
01e000
01e000
01e000
00c000
00c000
000000
000000
000000
ENDCHAR
STARTCHAR 0057
ENCODING 87
SWIDTH 17 0
DWIDTH 17 0
BBX 17 35 0 -1
BITMAP
000000
000000
000000
000000
70c380
70c380
70c380
70c380
70c380
70c380
71e380
39e700
39e700
39e700
39e700
39e700
3bf700
3b3700
3b3700
1f3e00
1f3e00
1f3e00
1f3e00
1e1e00
1e1e00
1e1e00
1e1e00
0e1c00
0e1c00
0c0c00
0c0c00
0c0c00
000000
000000
000000
ENDCHAR
STARTCHAR 0058
ENCODING 88
SWIDTH 17 0
DWIDTH 17 0
BBX 17 35 0 -1
BITMAP
000000
000000
000000
000000
700380
700380
380700
380700
1c0e00
1c0e00
0e1c00
0e1c00
073800
073800
03f000
03f000
01e000
01e000
01e000
01e000
03f000
03f000
073800
073800
0e1c00
0e1c00
1c0e00
1c0e00
380700
380700
700380
700380
000000
000000
000000
ENDCHAR
STARTCHAR 0059
ENCODING 89
SWIDTH 17 0
DWIDTH 17 0
BBX 17 35 0 -1
BITMAP
000000
000000
000000
000000
700700
700700
380e00
380e00
380e00
1c1c00
1c1c00
0e3800
0e3800
0e3800
077000
077000
03e000
03e000
03e000
01c000
01c000
01c000
01c000
01c000
01c000
01c000
01c000
01c000
01c000
01c000
01c000
01c000
000000
000000
000000
ENDCHAR
STARTCHAR 005a
ENCODING 90
SWIDTH 17 0
DWIDTH 17 0
BBX 17 35 0 -1
BITMAP
000000
000000
000000
000000
3fff00
3fff00
3fff00
000e00
000e00
001c00
001c00
003800
003800
007000
007000
00e000
00e000
01c000
01c000
038000
038000
070000
070000
0e0000
0e0000
1c0000
1c0000
380000
380000
7fff00
7fff00
7fff00
000000
000000
000000
ENDCHAR
STARTCHAR 005b
ENCODING 91
SWIDTH 17 0
DWIDTH 17 0
BBX 17 35 0 -1
BITMAP
000000
000000
00ff00
00ff00
00c000
00c000
00c000
00c000
00c000
00c000
00c000
00c000
00c000
00c000
00c000
00c000
00c000
00c000
00c000
00c000
00c000
00c000
00c000
00c000
00c000
00c000
00c000
00c000
00c000
00c000
00c000
00c000
00ff00
00ff00
000000
ENDCHAR
STARTCHAR 005c
ENCODING 92
SWIDTH 17 0
DWIDTH 17 0
BBX 17 35 0 -1
BITMAP
000000
000000
000000
000000
780f00
380e00
380e00
1c1c00
1c1c00
1c1c00
0e3800
0e3800
0e3800
077000
077000
07f000
7fff00
7fff00
01c000
01c000
01c000
7fff00
7fff00
01c000
01c000
01c000
01c000
01c000
01c000
01c000
01c000
01c000
000000
000000
000000
ENDCHAR
STARTCHAR 005d
ENCODING 93
SWIDTH 17 0
DWIDTH 17 0
BBX 17 35 0 -1
BITMAP
000000
000000
3fc000
3fc000
00c000
00c000
00c000
00c000
00c000
00c000
00c000
00c000
00c000
00c000
00c000
00c000
00c000
00c000
00c000
00c000
00c000
00c000
00c000
00c000
00c000
00c000
00c000
00c000
00c000
00c000
00c000
00c000
3fc000
3fc000
000000
ENDCHAR
STARTCHAR 005e
ENCODING 94
SWIDTH 17 0
DWIDTH 17 0
BBX 17 35 0 -1
BITMAP
000000
000000
00c000
01e000
03f000
073800
000000
000000
000000
000000
000000
000000
000000
000000
000000
000000
000000
000000
000000
000000
000000
000000
000000
000000
000000
000000
000000
000000
000000
000000
000000
000000
000000
000000
000000
ENDCHAR
STARTCHAR 005f
ENCODING 95
SWIDTH 17 0
DWIDTH 17 0
BBX 17 35 0 -1
BITMAP
000000
000000
000000
000000
000000
000000
000000
000000
000000
000000
000000
000000
000000
000000
000000
000000
000000
000000
000000
000000
000000
000000
000000
000000
000000
000000
000000
000000
000000
000000
000000
000000
7fff80
7fff80
000000
ENDCHAR
STARTCHAR 0060
ENCODING 96
SWIDTH 17 0
DWIDTH 17 0
BBX 17 35 0 -1
BITMAP
000000
000000
070000
0fe000
03f800
007000
000000
000000
000000
000000
000000
000000
000000
000000
000000
000000
000000
000000
000000
000000
000000
000000
000000
000000
000000
000000
000000
000000
000000
000000
000000
000000
000000
000000
000000
ENDCHAR
STARTCHAR 0061
ENCODING 97
SWIDTH 17 0
DWIDTH 17 0
BBX 17 35 0 -1
BITMAP
000000
000000
000000
000000
000000
000000
000000
000000
000000
000000
000000
000000
000000
000000
03e000
0ff800
1ffc00
3c1c00
380e00
000e00
000e00
07fe00
1ffe00
3ffe00
380e00
700e00
700e00
700e00
783e00
3fff00
3fff00
0fc600
000000
000000
000000
ENDCHAR
STARTCHAR 0062
ENCODING 98
SWIDTH 17 0
DWIDTH 17 0
BBX 17 35 0 -1
BITMAP
000000
000000
000000
000000
380000
380000
380000
380000
380000
380000
380000
380000
380000
380000
38e000
3bf800
3ffc00
3e1e00
3c0e00
380700
380700
380700
380700
380700
380700
380700
380700
3c0e00
3e1e00
3ffc00
3bf800
38e000
000000
000000
000000
ENDCHAR
STARTCHAR 0063
ENCODING 99
SWIDTH 17 0
DWIDTH 17 0
BBX 17 35 0 -1
BITMAP
000000
000000
000000
000000
000000
000000
000000
000000
000000
000000
000000
000000
000000
000000
03f000
0ffc00
1ffe00
3c0f00
380780
700300
700000
700000
700000
700000
700000
700000
700380
380780
3c0f00
1ffe00
0ffc00
03f000
000000
000000
000000
ENDCHAR
STARTCHAR 0064
ENCODING 100
SWIDTH 17 0
DWIDTH 17 0
BBX 17 35 0 -1
BITMAP
000000
000000
000000
000000
000700
000700
000700
000700
000700
000700
000700
000700
000700
000700
01c700
07f700
0fff00
1e1f00
1c0f00
380700
380700
380700
380700
380700
380700
380700
380700
1c0f00
1e1f00
0fff00
07f700
01c700
000000
000000
000000
ENDCHAR
STARTCHAR 0065
ENCODING 101
SWIDTH 17 0
DWIDTH 17 0
BBX 17 35 0 -1
BITMAP
000000
000000
000000
000000
000000
000000
000000
000000
000000
000000
000000
000000
000000
000000
03f000
0ffc00
1ffe00
3c0f00
380700
700380
700380
7fff80
7fff80
7fff80
700000
700000
700100
380380
3c0780
1fff00
0ffe00
03f800
000000
000000
000000
ENDCHAR
STARTCHAR 0066
ENCODING 102
SWIDTH 17 0
DWIDTH 17 0
BBX 17 35 0 -1
BITMAP
000000
000000
000000
000000
007e00
00fe00
01fe00
01c000
01c000
01c000
01c000
01c000
01c000
01c000
1ffe00
1ffe00
1ffe00
01c000
01c000
01c000
01c000
01c000
01c000
01c000
01c000
01c000
01c000
01c000
01c000
01c000
01c000
01c000
000000
000000
000000
ENDCHAR
STARTCHAR 0067
ENCODING 103
SWIDTH 17 0
DWIDTH 17 0
BBX 17 35 0 -1
BITMAP
000000
000000
000000
000000
000000
000000
000000
000000
000000
000000
000000
000000
000000
000000
01c700
07f700
0fff00
1e1f00
1c0f00
380700
380700
380700
380700
380700
1c0f00
1e1f00
0fff00
07f700
01c700
000700
1e0e00
1ffe00
0ffc00
03f000
000000
ENDCHAR
STARTCHAR 0068
ENCODING 104
SWIDTH 17 0
DWIDTH 17 0
BBX 17 35 0 -1
BITMAP
000000
000000
000000
000000
380000
380000
380000
380000
380000
380000
380000
380000
380000
380000
38f000
3bfc00
3ffe00
3e0e00
3c0700
380700
380700
380700
380700
380700
380700
380700
380700
380700
380700
380700
380700
380700
000000
000000
000000
ENDCHAR
STARTCHAR 0069
ENCODING 105
SWIDTH 17 0
DWIDTH 17 0
BBX 17 35 0 -1
BITMAP
000000
000000
000000
000000
01c000
01c000
01c000
01c000
01c000
000000
000000
000000
000000
000000
01c000
01c000
01c000
01c000
01c000
01c000
01c000
01c000
01c000
01c000
01c000
01c000
01c000
01c000
01c000
01c000
01c000
01c000
000000
000000
000000
ENDCHAR
STARTCHAR 006a
ENCODING 106
SWIDTH 17 0
DWIDTH 17 0
BBX 17 35 0 -1
BITMAP
000000
000000
000000
000000
00e000
00e000
00e000
00e000
00e000
000000
000000
000000
000000
000000
00e000
00e000
00e000
00e000
00e000
00e000
00e000
00e000
00e000
00e000
00e000
00e000
00e000
00e000
00e000
00e000
01e000
1fc000
1fc000
1f0000
000000
ENDCHAR
STARTCHAR 006b
ENCODING 107
SWIDTH 17 0
DWIDTH 17 0
BBX 17 35 0 -1
BITMAP
000000
000000
000000
000000
380000
380000
380000
380000
380000
380000
380000
380000
380000
380000
380f00
381e00
383c00
387800
38f000
39e000
3be000
3fe000
3f7000
3e7000
3c3800
383800
381c00
381c00
380e00
380e00
380700
380780
000000
000000
000000
ENDCHAR
STARTCHAR 006c
ENCODING 108
SWIDTH 17 0
DWIDTH 17 0
BBX 17 35 0 -1
BITMAP
000000
000000
000000
000000
01c000
01c000
01c000
01c000
01c000
01c000
01c000
01c000
01c000
01c000
01c000
01c000
01c000
01c000
01c000
01c000
01c000
01c000
01c000
01c000
01c000
01c000
01c000
01c000
01c000
01c000
01c000
01c000
000000
000000
000000
ENDCHAR
STARTCHAR 006d
ENCODING 109
SWIDTH 17 0
DWIDTH 17 0
BBX 17 35 0 -1
BITMAP
000000
000000
000000
000000
000000
000000
000000
000000
000000
000000
000000
000000
000000
000000
771c00
7fbe00
7fff00
79e700
71c700
71c700
71c700
71c700
71c700
71c700
71c700
71c700
71c700
71c700
71c700
71c700
71c700
71c700
000000
000000
000000
ENDCHAR
STARTCHAR 006e
ENCODING 110
SWIDTH 17 0
DWIDTH 17 0
BBX 17 35 0 -1
BITMAP
000000
000000
000000
000000
000000
000000
000000
000000
000000
000000
000000
000000
000000
000000
38f000
3bfc00
3ffe00
3e0e00
3c0700
380700
380700
380700
380700
380700
380700
380700
380700
380700
380700
380700
380700
380700
000000
000000
000000
ENDCHAR
STARTCHAR 006f
ENCODING 111
SWIDTH 17 0
DWIDTH 17 0
BBX 17 35 0 -1
BITMAP
000000
000000
000000
000000
000000
000000
000000
000000
000000
000000
000000
000000
000000
000000
03f000
0ffc00
1ffe00
3c0f00
380700
700380
700380
700380
700380
700380
700380
700380
700380
380700
3c0f00
1ffe00
0ffc00
03f000
000000
000000
000000
ENDCHAR
STARTCHAR 0070
ENCODING 112
SWIDTH 17 0
DWIDTH 17 0
BBX 17 35 0 -1
BITMAP
000000
000000
000000
000000
000000
000000
000000
000000
000000
000000
000000
000000
000000
000000
38e000
3bf800
3ffc00
3e1e00
3c0e00
380700
380700
380700
380700
380700
380700
3c0e00
3e1e00
3ffc00
3bf800
38e000
380000
380000
380000
380000
000000
ENDCHAR
STARTCHAR 0071
ENCODING 113
SWIDTH 17 0
DWIDTH 17 0
BBX 17 35 0 -1
BITMAP
000000
000000
000000
000000
000000
000000
000000
000000
000000
000000
000000
000000
000000
000000
01c700
07f700
0fff00
1e1f00
1c0f00
380700
380700
380700
380700
380700
380700
1c0f00
1e1f00
0fff00
07f700
01c700
000700
000700
000700
000700
000000
ENDCHAR
STARTCHAR 0072
ENCODING 114
SWIDTH 17 0
DWIDTH 17 0
BBX 17 35 0 -1
BITMAP
000000
000000
000000
000000
000000
000000
000000
000000
000000
000000
000000
000000
000000
000000
071e00
077e00
07fe00
07e000
078000
078000
070000
070000
070000
070000
070000
070000
070000
070000
070000
070000
070000
070000
000000
000000
000000
ENDCHAR
STARTCHAR 0073
ENCODING 115
SWIDTH 17 0
DWIDTH 17 0
BBX 17 35 0 -1
BITMAP
000000
000000
000000
000000
000000
000000
000000
000000
000000
000000
000000
000000
000000
000000
03e000
0ff800
1ffc00
1c1e00
380e00
380000
1c0000
1fc000
0ff800
03fe00
003e00
000f00
380700
380700
1c0e00
1ffe00
0ffc00
03f000
000000
000000
000000
ENDCHAR
STARTCHAR 0074
ENCODING 116
SWIDTH 17 0
DWIDTH 17 0
BBX 17 35 0 -1
BITMAP
000000
000000
000000
000000
000000
000000
000000
01c000
01c000
01c000
01c000
01c000
01c000
01c000
1ffe00
1ffe00
1ffe00
01c000
01c000
01c000
01c000
01c000
01c000
01c000
01c000
01c000
01c000
01c000
01e000
00fe00
00fe00
003e00
000000
000000
000000
ENDCHAR
STARTCHAR 0075
ENCODING 117
SWIDTH 17 0
DWIDTH 17 0
BBX 17 35 0 -1
BITMAP
000000
000000
000000
000000
000000
000000
000000
000000
000000
000000
000000
000000
000000
000000
380700
380700
380700
380700
380700
380700
380700
380700
380700
380700
380700
380700
380700
380f00
1c1f00
1fff00
0ff700
03e700
000000
000000
000000
ENDCHAR
STARTCHAR 0076
ENCODING 118
SWIDTH 17 0
DWIDTH 17 0
BBX 17 35 0 -1
BITMAP
000000
000000
000000
000000
000000
000000
000000
000000
000000
000000
000000
000000
000000
000000
380700
380700
380700
1c0e00
1c0e00
1c0e00
0e1c00
0e1c00
0e1c00
073800
073800
073800
03f000
03f000
01e000
01e000
00c000
00c000
000000
000000
000000
ENDCHAR
STARTCHAR 0077
ENCODING 119
SWIDTH 17 0
DWIDTH 17 0
BBX 17 35 0 -1
BITMAP
000000
000000
000000
000000
000000
000000
000000
000000
000000
000000
000000
000000
000000
000000
70c380
70c380
70c380
70c380
71e380
39e700
39e700
39e700
39e700
3bf700
1f3e00
1f3e00
1f3e00
1f3e00
0e1c00
0e1c00
0e1c00
0e1c00
000000
000000
000000
ENDCHAR
STARTCHAR 0078
ENCODING 120
SWIDTH 17 0
DWIDTH 17 0
BBX 17 35 0 -1
BITMAP
000000
000000
000000
000000
000000
000000
000000
000000
000000
000000
000000
000000
000000
000000
780780
380700
1c0e00
1e1e00
0e1c00
073800
073800
03f000
01e000
01e000
03f000
073800
073800
0e1c00
1e1e00
1c0e00
380700
780780
000000
000000
000000
ENDCHAR
STARTCHAR 0079
ENCODING 121
SWIDTH 17 0
DWIDTH 17 0
BBX 17 35 0 -1
BITMAP
000000
000000
000000
000000
000000
000000
000000
000000
000000
000000
000000
000000
000000
000000
380700
380700
1c0e00
1c0e00
0e1c00
0e1c00
071c00
073800
03b800
03f000
01f000
01e000
00e000
01c000
01c000
038000
038000
3f0000
3f0000
3e0000
000000
ENDCHAR
STARTCHAR 007a
ENCODING 122
SWIDTH 17 0
DWIDTH 17 0
BBX 17 35 0 -1
BITMAP
000000
000000
000000
000000
000000
000000
000000
000000
000000
000000
000000
000000
000000
000000
3fff00
3fff00
3fff00
001e00
001c00
003800
007800
00f000
00e000
01c000
03c000
078000
070000
0e0000
1e0000
3fff00
3fff00
3fff00
000000
000000
000000
ENDCHAR
STARTCHAR 007b
ENCODING 123
SWIDTH 17 0
DWIDTH 17 0
BBX 17 35 0 -1
BITMAP
000000
000000
001800
003c00
007800
007000
00e000
00e000
00e000
00e000
00e000
007000
007000
007000
007000
007000
00e000
03c000
03c000
00e000
007000
007000
007000
007000
007000
00e000
00e000
00e000
00e000
00e000
007000
007800
003c00
001800
000000
ENDCHAR
STARTCHAR 007c
ENCODING 124
SWIDTH 17 0
DWIDTH 17 0
BBX 17 35 0 -1
BITMAP
000000
000000
00c000
00c000
00c000
00c000
00c000
00c000
00c000
00c000
00c000
00c000
00c000
00c000
00c000
00c000
00c000
00c000
00c000
00c000
00c000
00c000
00c000
00c000
00c000
00c000
00c000
00c000
00c000
00c000
00c000
00c000
00c000
00c000
000000
ENDCHAR
STARTCHAR 007d
ENCODING 125
SWIDTH 17 0
DWIDTH 17 0
BBX 17 35 0 -1
BITMAP
000000
000000
060000
0f0000
078000
038000
01c000
01c000
01c000
01c000
01c000
038000
038000
038000
038000
038000
01c000
00f000
00f000
01c000
038000
038000
038000
038000
038000
01c000
01c000
01c000
01c000
01c000
038000
078000
0f0000
060000
000000
ENDCHAR
STARTCHAR 007e
ENCODING 126
SWIDTH 17 0
DWIDTH 17 0
BBX 17 35 0 -1
BITMAP
000000
000000
7fff80
7fff80
000000
000000
000000
000000
000000
000000
000000
000000
000000
000000
000000
000000
000000
000000
000000
000000
000000
000000
000000
000000
000000
000000
000000
000000
000000
000000
000000
000000
000000
000000
000000
ENDCHAR
STARTCHAR 7f
ENCODING 127
SWIDTH 17 0
DWIDTH 17 0
BBX 17 35 0 -1
BITMAP
000000
000000
000000
000000
000000
000000
000000
000000
000000
000000
000000
000000
000000
000000
000000
000000
000000
000000
000000
000000
000000
000000
000000
000000
000000
000000
000000
000000
000000
000000
000000
000000
000000
000000
000000
ENDCHAR
STARTCHAR a1
ENCODING 161
SWIDTH 17 0
DWIDTH 17 0
BBX 17 35 0 -1
BITMAP
000000
000000
000000
000000
000000
000000
000000
000000
000000
000000
000000
000000
000000
000000
000000
000000
000000
000000
000000
000000
000000
000000
000000
000000
000000
1f0000
3f8000
71c000
60c000
60c000
60c000
71c000
3f8000
1f0000
000000
ENDCHAR
STARTCHAR a2
ENCODING 162
SWIDTH 17 0
DWIDTH 17 0
BBX 17 35 0 -1
BITMAP
000000
000000
07fe00
07fe00
060000
060000
060000
060000
060000
060000
060000
060000
060000
060000
060000
060000
060000
060000
060000
060000
060000
060000
060000
060000
060000
000000
000000
000000
000000
000000
000000
000000
000000
000000
000000
ENDCHAR
STARTCHAR a3
ENCODING 163
SWIDTH 17 0
DWIDTH 17 0
BBX 17 35 0 -1
BITMAP
000000
000000
000000
000000
000000
000000
000000
000000
000000
000000
000000
001800
001800
001800
001800
001800
001800
001800
001800
001800
001800
001800
001800
001800
001800
001800
001800
001800
001800
001800
001800
001800
1ff800
1ff800
000000
ENDCHAR
STARTCHAR a4
ENCODING 164
SWIDTH 17 0
DWIDTH 17 0
BBX 17 35 0 -1
BITMAP
000000
000000
000000
000000
000000
000000
000000
000000
000000
000000
000000
000000
000000
000000
000000
000000
000000
000000
000000
000000
000000
000000
000000
000000
000000
000000
300000
780000
3c0000
1e0000
0f0000
078000
038000
010000
000000
ENDCHAR
STARTCHAR a5
ENCODING 165
SWIDTH 17 0
DWIDTH 17 0
BBX 17 35 0 -1
BITMAP
000000
000000
000000
000000
000000
000000
000000
000000
000000
000000
000000
000000
000000
000000
000000
000000
01e000
01e000
01e000
01e000
000000
000000
000000
000000
000000
000000
000000
000000
000000
000000
000000
000000
000000
000000
000000
ENDCHAR
STARTCHAR a6
ENCODING 166
SWIDTH 17 0
DWIDTH 17 0
BBX 17 35 0 -1
BITMAP
000000
000000
000000
000000
000000
000600
3fff00
3fff80
3fff00
000700
000700
000700
000700
000700
1fff00
1ffe00
1ffe00
000e00
000e00
001c00
001c00
001c00
003800
003800
007000
007000
00e000
01e000
03c000
078000
030000
000000
000000
000000
000000
ENDCHAR
STARTCHAR a7
ENCODING 167
SWIDTH 17 0
DWIDTH 17 0
BBX 17 35 0 -1
BITMAP
000000
000000
000000
000000
000000
000000
000000
000000
000000
000000
000000
000000
000000
3ffe00
3fff00
3fff80
000700
000f00
018e00
01dc00
01fc00
01f800
01d000
01c000
01c000
01c000
038000
038000
038000
070000
0f0000
0e0000
040000
000000
000000
ENDCHAR
STARTCHAR a8
ENCODING 168
SWIDTH 17 0
DWIDTH 17 0
BBX 17 35 0 -1
BITMAP
000000
000000
000000
000000
000000
000000
000000
000000
000000
000000
000000
000000
000000
000c00
001e00
001c00
003800
007800
00f000
00e000
01e000
03e000
07e000
0fe000
1ee000
3ce000
38e000
10e000
00e000
00e000
00e000
00e000
00e000
000000
000000
ENDCHAR
STARTCHAR a9
ENCODING 169
SWIDTH 17 0
DWIDTH 17 0
BBX 17 35 0 -1
BITMAP
000000
000000
000000
000000
000000
000000
000000
000000
000000
000000
000000
000000
01c000
01c000
01c000
01c000
3ffc00
3ffe00
3fff00
380e00
380e00
380e00
380e00
381c00
001c00
003800
003800
007000
00f000
01e000
03c000
038000
010000
000000
000000
ENDCHAR
STARTCHAR aa
ENCODING 170
SWIDTH 17 0
DWIDTH 17 0
BBX 17 35 0 -1
BITMAP
000000
000000
000000
000000
000000
000000
000000
000000
000000
000000
000000
000000
000000
000000
1ffc00
1ffc00
1ffc00
01c000
01c000
01c000
01c000
01c000
01c000
01c000
01c000
01c000
01c000
3ffe00
3ffe00
3ffe00
000000
000000
000000
000000
000000
ENDCHAR
STARTCHAR ab
ENCODING 171
SWIDTH 17 0
DWIDTH 17 0
BBX 17 35 0 -1
BITMAP
000000
000000
000000
000000
000000
000000
000000
000000
000000
000000
000000
003800
003800
003800
003800
003800
3fff80
3fff80
3fff80
00f800
01f800
03f800
03b800
073800
0f3800
1e3800
3c3800
383800
103800
01f800
00f800
00f000
000000
000000
000000
ENDCHAR
STARTCHAR ac
ENCODING 172
SWIDTH 17 0
DWIDTH 17 0
BBX 17 35 0 -1
BITMAP
000000
000000
000000
000000
000000
000000
000000
000000
000000
000000
000000
000000
0e0000
0e0000
0e0200
071f00
077f80
07ff80
0fe700
3f8700
3f8700
138e00
038e00
038400
01c000
01c000
01c000
01c000
00e000
00e000
00e000
00e000
000000
000000
000000
ENDCHAR
STARTCHAR ad
ENCODING 173
SWIDTH 17 0
DWIDTH 17 0
BBX 17 35 0 -1
BITMAP
000000
000000
000000
000000
000000
000000
000000
000000
000000
000000
000000
000000
000000
000000
1ff800
1ffc00
1ffc00
003800
003800
003800
003800
003800
007000
007000
007000
007000
007000
7fff00
7fff00
7fff00
000000
000000
000000
000000
000000
ENDCHAR
STARTCHAR ae
ENCODING 174
SWIDTH 17 0
DWIDTH 17 0
BBX 17 35 0 -1
BITMAP
000000
000000
000000
000000
000000
000000
000000
000000
000000
000000
000000
000000
000000
000000
1ffc00
1ffc00
1ffc00
001c00
001c00
001c00
001c00
0ffc00
0ffc00
0ffc00
001c00
001c00
001c00
001c00
1ffc00
1ffc00
1ffc00
001c00
000000
000000
000000
ENDCHAR
STARTCHAR af
ENCODING 175
SWIDTH 17 0
DWIDTH 17 0
BBX 17 35 0 -1
BITMAP
000000
000000
000000
000000
000000
000000
000000
000000
000000
000000
000000
000000
000000
000000
018700
338700
71c700
39c700
39c700
38e700
1cce00
1c8e00
080e00
000e00
001c00
001c00
003800
003800
007000
00f000
01e000
03c000
018000
000000
000000
ENDCHAR
STARTCHAR b0
ENCODING 176
SWIDTH 17 0
DWIDTH 17 0
BBX 17 35 0 -1
BITMAP
000000
000000
000000
000000
000000
000000
000000
000000
000000
000000
000000
000000
000000
000000
000000
000000
7fff80
7fff80
7fff80
000000
000000
000000
000000
000000
000000
000000
000000
000000
000000
000000
000000
000000
000000
000000
000000
ENDCHAR
STARTCHAR b1
ENCODING 177
SWIDTH 17 0
DWIDTH 17 0
BBX 17 35 0 -1
BITMAP
000000
000000
000000
000000
000000
000000
000200
7fff00
7fff80
7fff80
000700
000700
000700
01ce00
01ce00
01dc00
01fc00
01f800
01d000
01c000
01c000
038000
038000
038000
038000
070000
070000
0e0000
1e0000
1c0000
080000
000000
000000
000000
000000
ENDCHAR
STARTCHAR b2
ENCODING 178
SWIDTH 17 0
DWIDTH 17 0
BBX 17 35 0 -1
BITMAP
000000
000000
000000
000000
000000
000600
000700
000e00
001e00
001c00
003800
007800
00f000
00e000
01e000
03e000
07e000
0fe000
1ee000
3ce000
78e000
70e000
20e000
00e000
00e000
00e000
00e000
00e000
00e000
00e000
00e000
000000
000000
000000
000000
ENDCHAR
STARTCHAR b3
ENCODING 179
SWIDTH 17 0
DWIDTH 17 0
BBX 17 35 0 -1
BITMAP
000000
000000
000000
000000
00e000
00e000
00e000
00e000
00e000
3ffe00
3fff00
3fff80
380700
380700
380700
380700
380700
380e00
380e00
000e00
001c00
001c00
001c00
003800
003800
007000
00f000
00e000
01c000
03c000
018000
000000
000000
000000
000000
ENDCHAR
STARTCHAR b4
ENCODING 180
SWIDTH 17 0
DWIDTH 17 0
BBX 17 35 0 -1
BITMAP
000000
000000
000000
000000
000000
000000
000000
000000
000000
3ffe00
3ffe00
3ffe00
01c000
01c000
01c000
01c000
01c000
01c000
01c000
01c000
01c000
01c000
01c000
01c000
01c000
7fff00
7fff00
7fff00
000000
000000
000000
000000
000000
000000
000000
ENDCHAR
STARTCHAR b5
ENCODING 181
SWIDTH 17 0
DWIDTH 17 0
BBX 17 35 0 -1
BITMAP
000000
000000
000000
000000
000000
003800
003800
003800
003800
003800
003800
7fff80
7fff80
7fff80
00f800
00f800
01f800
01f800
03b800
03b800
073800
0f3800
0e3800
1c3800
3c3800
783800
703800
203800
03f800
01f800
01f000
000000
000000
000000
000000
ENDCHAR
STARTCHAR b6
ENCODING 182
SWIDTH 17 0
DWIDTH 17 0
BBX 17 35 0 -1
BITMAP
000000
000000
000000
000000
000000
01c000
01c000
01c000
01c000
01c000
01c000
7fff00
7fff00
7fff00
038700
038700
038700
038700
038700
038700
070700
070700
070700
0e0700
0e0700
1c0e00
1c0e00
380e00
78fe00
707c00
207800
000000
000000
000000
000000
ENDCHAR
STARTCHAR b7
ENCODING 183
SWIDTH 17 0
DWIDTH 17 0
BBX 17 35 0 -1
BITMAP
000000
000000
000000
000000
000000
038000
038000
038000
038000
038000
039e00
07fe00
7ffe00
7fe000
79c000
01c000
01c000
01c000
00ef00
03ff00
7fff00
7ff000
7ce000
00e000
00e000
007000
007000
007000
007000
007000
007000
000000
000000
000000
000000
ENDCHAR
STARTCHAR b8
ENCODING 184
SWIDTH 17 0
DWIDTH 17 0
BBX 17 35 0 -1
BITMAP
000000
000000
000000
000000
000000
01c000
01c000
01c000
038000
03ff00
03ff80
07ff80
070700
070700
0e0700
1e0e00
1c0e00
380e00
781c00
701c00
203800
003800
007000
00f000
00e000
01c000
03c000
078000
0f0000
1e0000
1c0000
080000
000000
000000
000000
ENDCHAR
STARTCHAR b9
ENCODING 185
SWIDTH 17 0
DWIDTH 17 0
BBX 17 35 0 -1
BITMAP
000000
000000
000000
000000
040000
060000
070000
070000
070000
070000
070000
0fff80
0fff80
0fff80
1e3800
1c3800
1c3800
383800
383800
703800
703800
203800
007000
007000
007000
00e000
00e000
01e000
01c000
03c000
038000
010000
000000
000000
000000
ENDCHAR
STARTCHAR ba
ENCODING 186
SWIDTH 17 0
DWIDTH 17 0
BBX 17 35 0 -1
BITMAP
000000
000000
000000
000000
000000
000000
000000
000000
000000
3ffe00
3ffe00
3ffe00
000e00
000e00
000e00
000e00
000e00
000e00
000e00
000e00
000e00
000e00
000e00
000e00
000e00
000e00
3ffe00
3ffe00
3ffe00
000e00
000000
000000
000000
000000
000000
ENDCHAR
STARTCHAR bb
ENCODING 187
SWIDTH 17 0
DWIDTH 17 0
BBX 17 35 0 -1
BITMAP
000000
000000
000000
000000
000000
0e1c00
0e1c00
0e1c00
0e1c00
0e1c00
0e1c00
7fff80
7fff80
7fff80
0e1c00
0e1c00
0e1c00
0e1c00
0e1c00
0e1c00
0e1c00
0e3800
003800
003800
007000
007000
00e000
00e000
01c000
03c000
038000
010000
000000
000000
000000
ENDCHAR
STARTCHAR bc
ENCODING 188
SWIDTH 17 0
DWIDTH 17 0
BBX 17 35 0 -1
BITMAP
000000
000000
000000
000000
000000
080000
1c0000
1e0000
0f0000
078000
038300
010380
200380
700380
780700
3c0700
1e0700
0e0e00
040e00
001c00
001c00
003800
003800
007000
00f000
01e000
01c000
038000
078000
0f0000
0e0000
040000
000000
000000
000000
ENDCHAR
STARTCHAR bd
ENCODING 189
SWIDTH 17 0
DWIDTH 17 0
BBX 17 35 0 -1
BITMAP
000000
000000
000000
000000
000000
000000
000800
1ffc00
1ffe00
1ffe00
001c00
001c00
003800
003800
003800
007000
007000
00e000
00e000
01f000
01f000
03f800
07b800
071c00
0e1e00
1e0e00
1c0700
380700
780380
300300
000000
000000
000000
000000
000000
ENDCHAR
STARTCHAR be
ENCODING 190
SWIDTH 17 0
DWIDTH 17 0
BBX 17 35 0 -1
BITMAP
000000
000000
000000
000000
000000
070000
070000
070000
070000
070000
070300
071f80
07ff80
0fff00
7fe700
7f0e00
770e00
071c00
071c00
073800
071800
070000
070000
070000
070000
070000
070000
07ff00
03ff00
01ff00
000000
000000
000000
000000
000000
ENDCHAR
STARTCHAR bf
ENCODING 191
SWIDTH 17 0
DWIDTH 17 0
BBX 17 35 0 -1
BITMAP
000000
000000
000000
000000
000000
000000
000000
000600
300700
700700
380700
380700
180700
1c0e00
1c0e00
0e0e00
0c0e00
000e00
001c00
001c00
001c00
003800
003800
007000
00f000
00e000
01c000
03c000
078000
070000
020000
000000
000000
000000
000000
ENDCHAR
STARTCHAR c0
ENCODING 192
SWIDTH 17 0
DWIDTH 17 0
BBX 17 35 0 -1
BITMAP
000000
000000
000000
000000
000000
01c000
01c000
01c000
038200
03ff00
03ff80
07ff80
070700
070700
0e0700
1e0e00
1d8e00
3bee00
79fc00
707c00
203800
003800
007000
00f000
00e000
01c000
03c000
078000
0f0000
1e0000
1c0000
080000
000000
000000
000000
ENDCHAR
STARTCHAR c1
ENCODING 193
SWIDTH 17 0
DWIDTH 17 0
BBX 17 35 0 -1
BITMAP
000000
000000
000000
000000
000000
000c00
003e00
01fe00
3ff800
1fe000
1ee000
00e000
00e000
00e000
00e000
7fff80
7fff80
7fff80
00e000
00e000
00e000
00e000
01c000
01c000
01c000
01c000
038000
038000
070000
0f0000
0e0000
040000
000000
000000
000000
ENDCHAR
STARTCHAR c2
ENCODING 194
SWIDTH 17 0
DWIDTH 17 0
BBX 17 35 0 -1
BITMAP
000000
000000
000000
000000
000000
000000
018400
038600
338700
738700
71c700
71c700
39c700
39ce00
39ce00
398e00
300e00
000e00
001c00
001c00
001c00
003800
003800
007000
00f000
00e000
01c000
03c000
078000
070000
020000
000000
000000
000000
000000
ENDCHAR
STARTCHAR c3
ENCODING 195
SWIDTH 17 0
DWIDTH 17 0
BBX 17 35 0 -1
BITMAP
000000
000000
000000
000000
000000
1ffe00
1ffe00
1ffe00
000000
000000
000000
000000
000000
7fff80
7fff80
7fff80
00e000
00e000
00e000
00e000
00e000
00e000
00e000
01c000
01c000
01c000
038000
038000
070000
0f0000
0e0000
040000
000000
000000
000000
ENDCHAR
STARTCHAR c4
ENCODING 196
SWIDTH 17 0
DWIDTH 17 0
BBX 17 35 0 -1
BITMAP
000000
000000
000000
000000
000000
038000
038000
038000
038000
038000
038000
038000
038000
038000
038000
03b000
03f800
03be00
039f00
038700
038200
038000
038000
038000
038000
038000
038000
038000
038000
038000
038000
000000
000000
000000
000000
ENDCHAR
STARTCHAR c5
ENCODING 197
SWIDTH 17 0
DWIDTH 17 0
BBX 17 35 0 -1
BITMAP
000000
000000
000000
000000
000000
00e000
00e000
00e000
00e000
00e000
00e000
00e000
7fff80
7fff80
7fff80
00e000
00e000
00e000
00e000
00e000
00e000
00e000
01c000
01c000
01c000
01c000
01c000
038000
038000
078000
070000
030000
000000
000000
000000
ENDCHAR
STARTCHAR c6
ENCODING 198
SWIDTH 17 0
DWIDTH 17 0
BBX 17 35 0 -1
BITMAP
000000
000000
000000
000000
000000
000000
000000
000000
000000
1ffc00
1ffc00
1ffc00
000000
000000
000000
000000
000000
000000
000000
000000
000000
000000
000000
000000
7fff00
7fff00
7fff00
000000
000000
000000
000000
000000
000000
000000
000000
ENDCHAR
STARTCHAR c7
ENCODING 199
SWIDTH 17 0
DWIDTH 17 0
BBX 17 35 0 -1
BITMAP
000000
000000
000000
000000
000000
000400
3ffe00
3fff00
3fff80
000700
000700
000e00
000e00
020e00
071c00
079c00
03fc00
01f800
00f800
007c00
00fe00
00ef00
01c700
03c200
038000
070000
0f0000
1e0000
3c0000
380000
100000
000000
000000
000000
000000
ENDCHAR
STARTCHAR c8
ENCODING 200
SWIDTH 17 0
DWIDTH 17 0
BBX 17 35 0 -1
BITMAP
000000
000000
000000
000000
00e000
00e000
00e000
00e000
00e400
1ffe00
1fff00
1fff00
000e00
001c00
003c00
007800
00f000
01f000
03f800
07fc00
0ffe00
1eef00
3ce780
78e380
30e100
00e000
00e000
00e000
00e000
00e000
00e000
000000
000000
000000
000000
ENDCHAR
STARTCHAR c9
ENCODING 201
SWIDTH 17 0
DWIDTH 17 0
BBX 17 35 0 -1
BITMAP
000000
000000
000000
000000
000000
000800
000c00
000e00
000e00
000e00
001c00
001c00
001c00
001c00
003800
003800
003800
007000
007000
007000
00e000
00e000
01c000
01c000
038000
078000
070000
0f0000
1e0000
3e0000
1c0000
080000
000000
000000
000000
ENDCHAR
STARTCHAR ca
ENCODING 202
SWIDTH 17 0
DWIDTH 17 0
BBX 17 35 0 -1
BITMAP
000000
000000
000000
000000
000000
000000
000000
000000
060c00
071c00
071c00
070e00
070e00
070e00
0e0e00
0e0e00
0e0700
0e0700
0e0700
1c0700
1c0700
1c0380
1c0380
380380
380380
380380
700380
700380
200300
000000
000000
000000
000000
000000
000000
ENDCHAR
STARTCHAR cb
ENCODING 203
SWIDTH 17 0
DWIDTH 17 0
BBX 17 35 0 -1
BITMAP
000000
000000
000000
000000
000000
1c0000
1c0000
1c0000
1c0000
1c0000
1c0000
1c0600
1c0f00
1c3e00
1cfc00
1ff000
1fc000
1f0000
1c0000
1c0000
1c0000
1c0000
1c0000
1c0000
1c0000
1c0000
1fff00
0fff00
07ff00
000000
000000
000000
000000
000000
000000
ENDCHAR
STARTCHAR cc
ENCODING 204
SWIDTH 17 0
DWIDTH 17 0
BBX 17 35 0 -1
BITMAP
000000
000000
000000
000000
000000
000000
000000
000200
3fff00
3fff80
3fff80
000700
000700
000700
000700
000700
000e00
000e00
000e00
001c00
001c00
003800
003800
007000
00f000
00e000
01c000
03c000
078000
070000
020000
000000
000000
000000
000000
ENDCHAR
STARTCHAR cd
ENCODING 205
SWIDTH 17 0
DWIDTH 17 0
BBX 17 35 0 -1
BITMAP
000000
000000
000000
000000
000000
000000
000000
000000
070000
070000
0f8000
0f8000
1fc000
1dc000
3ce000
38e000
387000
787000
703800
203c00
001c00
001e00
000e00
000f00
000700
000780
000380
000100
000000
000000
000000
000000
000000
000000
000000
ENDCHAR
STARTCHAR ce
ENCODING 206
SWIDTH 17 0
DWIDTH 17 0
BBX 17 35 0 -1
BITMAP
000000
000000
000000
000000
000000
01c000
01c000
01c000
01c000
01c000
3ffe00
3ffe00
3ffe00
01c000
01c000
01c000
1ddc00
1ddc00
1ddc00
1dce00
39ce00
39ce00
39ce00
39c700
71c700
71c700
21c200
01c000
07c000
03c000
038000
000000
000000
000000
000000
ENDCHAR
STARTCHAR cf
ENCODING 207
SWIDTH 17 0
DWIDTH 17 0
BBX 17 35 0 -1
BITMAP
000000
000000
000000
000000
000000
000000
000000
000200
3fff00
3fff80
3fff80
000700
000700
000e00
000e00
000e00
061c00
0e1c00
073800
073800
03f000
03f000
01e000
01c000
00e000
00e000
00e000
007000
007000
007000
000000
000000
000000
000000
000000
ENDCHAR
STARTCHAR d0
ENCODING 208
SWIDTH 17 0
DWIDTH 17 0
BBX 17 35 0 -1
BITMAP
000000
000000
000000
000000
060000
0f8000
07c000
01f000
00f800
003c00
001c00
000800
0c0000
1f0000
0f8000
03e000
01f000
007800
003800
001000
000000
180000
3e0000
1f0000
07c000
03e000
00f800
007c00
001e00
000e00
000400
000000
000000
000000
000000
ENDCHAR
STARTCHAR d1
ENCODING 209
SWIDTH 17 0
DWIDTH 17 0
BBX 17 35 0 -1
BITMAP
000000
000000
000000
000000
010000
018000
01c000
01c000
01c000
01c000
01c000
038000
038000
038000
038000
038000
038000
070000
070000
071c00
071c00
071c00
070e00
0e0e00
0e0e00
0e3f00
0fff00
7fff00
7fc380
780380
000380
000000
000000
000000
000000
ENDCHAR
STARTCHAR d2
ENCODING 210
SWIDTH 17 0
DWIDTH 17 0
BBX 17 35 0 -1
BITMAP
000000
000000
000000
000000
000000
000c00
000e00
000e00
000e00
001c00
001c00
001c00
041c00
0e3800
0f3800
07b800
03f000
01f000
00f000
00f800
01fc00
01de00
03ce00
078400
070000
0f0000
1e0000
3c0000
780000
700000
200000
000000
000000
000000
000000
ENDCHAR
STARTCHAR d3
ENCODING 211
SWIDTH 17 0
DWIDTH 17 0
BBX 17 35 0 -1
BITMAP
000000
000000
000000
000000
000000
000000
000000
3ffe00
3ffe00
3ffe00
038000
038000
038000
038000
038000
038000
7fff00
7fff00
7fff00
038000
038000
038000
038000
038000
038000
038000
038000
03ff00
01ff00
00ff00
000000
000000
000000
000000
000000
ENDCHAR
STARTCHAR d4
ENCODING 212
SWIDTH 17 0
DWIDTH 17 0
BBX 17 35 0 -1
BITMAP
000000
000000
000000
000000
000000
1c0000
1c0000
1c0000
1c0000
1c0600
0e3f00
0fff80
0fff00
7fc700
7f0700
770e00
070e00
070e00
071c00
038c00
038000
038000
038000
038000
038000
01c000
01c000
01c000
01c000
01c000
01c000
000000
000000
000000
000000
ENDCHAR
STARTCHAR d5
ENCODING 213
SWIDTH 17 0
DWIDTH 17 0
BBX 17 35 0 -1
BITMAP
000000
000000
000000
000000
000000
000000
000000
000000
000000
1ff800
1ff800
1ff800
003800
003800
003800
003800
003800
003800
007000
007000
007000
007000
007000
007000
007000
7fff80
7fff80
7fff80
000000
000000
000000
000000
000000
000000
000000
ENDCHAR
STARTCHAR d6
ENCODING 214
SWIDTH 17 0
DWIDTH 17 0
BBX 17 35 0 -1
BITMAP
000000
000000
000000
000000
000000
000000
000000
3ffe00
3ffe00
3ffe00
000e00
000e00
000e00
000e00
000e00
000e00
1ffe00
1ffe00
1ffe00
000e00
000e00
000e00
000e00
000e00
000e00
3ffe00
3ffe00
3ffe00
000e00
000000
000000
000000
000000
000000
000000
ENDCHAR
STARTCHAR d7
ENCODING 215
SWIDTH 17 0
DWIDTH 17 0
BBX 17 35 0 -1
BITMAP
000000
000000
000000
000000
000000
3ffe00
3ffe00
3ffe00
000000
000000
000000
000000
7ffe00
7fff00
7fff00
000e00
000e00
000e00
000e00
001c00
001c00
001c00
001c00
003800
007800
007000
00e000
01e000
03c000
078000
070000
020000
000000
000000
000000
ENDCHAR
STARTCHAR d8
ENCODING 216
SWIDTH 17 0
DWIDTH 17 0
BBX 17 35 0 -1
BITMAP
000000
000000
000000
000000
000000
1c0e00
1c0e00
1c0e00
1c0e00
1c0e00
1c0e00
1c0e00
1c0e00
1c0e00
1c0e00
1c0e00
1c0e00
1c0e00
1c0e00
1c1c00
001c00
001c00
001c00
003800
003800
007000
00f000
01e000
03c000
038000
010000
000000
000000
000000
000000
ENDCHAR
STARTCHAR d9
ENCODING 217
SWIDTH 17 0
DWIDTH 17 0
BBX 17 35 0 -1
BITMAP
000000
000000
000000
000000
000000
000000
007000
1c7000
1c7000
1c7000
1c7000
1c7000
1c7000
1c7000
1c7000
1c7000
1c7300
1c7380
1c7380
1c7700
1c7700
1c7700
387e00
387e00
387c00
387c00
387800
70f800
707000
302000
000000
000000
000000
000000
000000
ENDCHAR
STARTCHAR da
ENCODING 218
SWIDTH 17 0
DWIDTH 17 0
BBX 17 35 0 -1
BITMAP
000000
000000
000000
000000
000000
000000
0e0000
0e0000
0e0000
0e0000
0e0000
0e0000
0e0000
0e0000
0e0000
0e0300
0e0380
0e0700
0e0700
0e0e00
0e1e00
0e1c00
0e3800
0e7800
0ef000
0fe000
0fc000
0f8000
1f0000
0c0000
000000
000000
000000
000000
000000
ENDCHAR
STARTCHAR db
ENCODING 219
SWIDTH 17 0
DWIDTH 17 0
BBX 17 35 0 -1
BITMAP
000000
000000
000000
000000
000000
000000
000000
000000
3ffe00
3ffe00
3ffe00
380e00
380e00
380e00
380e00
380e00
380e00
380e00
380e00
380e00
380e00
380e00
380e00
380e00
380e00
3ffe00
3ffe00
3ffe00
380e00
000000
000000
000000
000000
000000
000000
ENDCHAR
STARTCHAR dc
ENCODING 220
SWIDTH 17 0
DWIDTH 17 0
BBX 17 35 0 -1
BITMAP
000000
000000
000000
000000
000000
000000
000400
3ffe00
3fff00
3fff80
380700
380700
380700
380700
380700
380700
380700
380e00
000e00
000e00
000e00
001c00
001c00
001c00
003800
003800
007000
007000
00e000
01e000
01c000
008000
000000
000000
000000
ENDCHAR
STARTCHAR dd
ENCODING 221
SWIDTH 17 0
DWIDTH 17 0
BBX 17 35 0 -1
BITMAP
000000
000000
000000
000000
000000
000000
000000
000000
300000
780000
3c0300
1e0380
0f0380
078700
030700
000700
000e00
000e00
001c00
001c00
003800
007800
007000
00e000
01e000
03c000
078000
0f0000
3e0000
3c0000
100000
000000
000000
000000
000000
ENDCHAR
STARTCHAR de
ENCODING 222
SWIDTH 17 0
DWIDTH 17 0
BBX 17 35 0 -1
BITMAP
000000
000000
040000
0e0000
270000
738000
390000
1c0000
080000
000000
000000
000000
000000
000000
000000
000000
000000
000000
000000
000000
000000
000000
000000
000000
000000
000000
000000
000000
000000
000000
000000
000000
000000
000000
000000
ENDCHAR
STARTCHAR df
ENCODING 223
SWIDTH 17 0
DWIDTH 17 0
BBX 17 35 0 -1
BITMAP
000000
000000
1e0000
3f0000
738000
618000
618000
738000
3f0000
1e0000
000000
000000
000000
000000
000000
000000
000000
000000
000000
000000
000000
000000
000000
000000
000000
000000
000000
000000
000000
000000
000000
000000
000000
000000
000000
ENDCHAR
ENDFONT
